HIERARCHY
ROOT Hips
{
	OFFSET 0.00000 0.00000 0.00000
	CHANNELS 6 Xposition Yposition Zposition Zrotation Yrotation Xrotation 
	JOINT LHipJoint
	{
		OFFSET 0 0 0
		CHANNELS 3 Zrotation Yrotation Xrotation
		JOINT LeftHip
		{
			OFFSET 1.34019 -1.87553 0.90315
			CHANNELS 3 Zrotation Yrotation Xrotation
			JOINT LeftKnee
			{
				OFFSET 2.55316 -7.01474 0.00000
				CHANNELS 3 Zrotation Yrotation Xrotation
				JOINT LeftAnkle
				{
					OFFSET 2.64657 -7.27139 0.00000
					CHANNELS 3 Zrotation Yrotation Xrotation
					JOINT LeftToe
					{
						OFFSET 0.24207 -0.66507 2.14489
						CHANNELS 3 Zrotation Yrotation Xrotation
						End Site
						{
							OFFSET 0.00000 -0.00000 1.12451
						}
					}
				}
			}
		}
	}
	JOINT RHipJoint
	{
		OFFSET 0 0 0
		CHANNELS 3 Zrotation Yrotation Xrotation
		JOINT RightHip
		{
			OFFSET -1.28320 -1.87553 0.90315
			CHANNELS 3 Zrotation Yrotation Xrotation
			JOINT RightKnee
			{
				OFFSET -2.60484 -7.15674 0.00000
				CHANNELS 3 Zrotation Yrotation Xrotation
				JOINT RightAnkle
				{
					OFFSET -2.60296 -7.15159 0.00000
					CHANNELS 3 Zrotation Yrotation Xrotation
					JOINT RightToe
					{
						OFFSET -0.31082 -0.85398 2.28998
						CHANNELS 3 Zrotation Yrotation Xrotation
						End Site
						{
							OFFSET -0.00000 -0.00000 1.21611
						}
					}
				}
			}
		}
	}
	JOINT lowerback
	{
		OFFSET 0 0 0
		CHANNELS 3 Zrotation Yrotation Xrotation
		JOINT Chest
		{
			OFFSET -0.00160 2.05581 -0.15156
			CHANNELS 3 Zrotation Yrotation Xrotation
			JOINT Chest2
			{
				OFFSET 0.04594 2.06326 -0.01617
				CHANNELS 3 Zrotation Yrotation Xrotation
				JOINT lowerneck
				{
					OFFSET 0 0 0
					CHANNELS 3 Zrotation Yrotation Xrotation
					JOINT Neck
					{
						OFFSET 0.03753 1.73883 0.26751
						CHANNELS 3 Zrotation Yrotation Xrotation
						JOINT Head
						{
							OFFSET -0.09795 1.76129 -0.31794
							CHANNELS 3 Zrotation Yrotation Xrotation
							End Site
							{
								OFFSET -0.03611 1.79987 -0.13846
							}
						}
					}
				}
				JOINT LeftCollar
				{
					OFFSET 0 0 0
					CHANNELS 3 Zrotation Yrotation Xrotation
					JOINT LeftShoulder
					{
						OFFSET 3.30667 1.29205 -0.22445
CHANNELS 3 Zrotation Xrotation Yrotation
						JOINT LeftElbow
						{
OFFSET 0 -4.927850 -0.000000
CHANNELS 3 Zrotation Xrotation Yrotation
							JOINT LeftWrist
							{
OFFSET 0 -3.440520 0.000000
CHANNELS 3 Zrotation Xrotation Yrotation
								JOINT lhand
								{
									OFFSET 0 0 0
CHANNELS 3 Zrotation Xrotation Yrotation
									JOINT LFingers
									{
OFFSET 0 -0.654330 0.000000
CHANNELS 3 Zrotation Xrotation Yrotation
										End Site
										{
OFFSET 0 -0.527530 0.000000
										}
									}
								}
								JOINT LThumb
								{
OFFSET 0 0.000000 0.000000
CHANNELS 3 Zrotation Xrotation Yrotation
									End Site
									{
OFFSET 0 -0.535590 0.535590
									}
								}
							}
						}
					}
				}
				JOINT RightCollar
				{
					OFFSET 0 0 0
					CHANNELS 3 Zrotation Yrotation Xrotation
					JOINT RightShoulder
					{
						OFFSET -3.20032 1.49783 -0.27688
CHANNELS 3 Zrotation Xrotation Yrotation
						JOINT RightElbow
						{
OFFSET 0 -5.091810 -0.000000
CHANNELS 3 Zrotation Xrotation Yrotation
							JOINT RightWrist
							{
OFFSET 0 -3.498650 -0.000000
CHANNELS 3 Zrotation Xrotation Yrotation
								JOINT rhand
								{
									OFFSET 0 0 0
CHANNELS 3 Zrotation Xrotation Yrotation
									JOINT RFingers
									{
OFFSET 0 -0.666410 0.000000
CHANNELS 3 Zrotation Xrotation Yrotation
										End Site
										{
OFFSET 0 -0.537280 0.000000
										}
									}
								}
								JOINT RThumb
								{
OFFSET 0 0.000000 0.000000
CHANNELS 3 Zrotation Xrotation Yrotation
									End Site
									{
OFFSET 0 -0.545480 0.545480
									}
								}
							}
						}
					}
				}
			}
		}
	}
}
MOTION
Frames: 9
Frame Time: 0.008333333333333333
0.044100 17.916400 -29.727200 -0.527700 3.698300 2.653700 0.000000 0.000000 0.000000 -19.131000 -3.932700 -5.755300 1.815100 8.469800 24.150300 0.078400 11.386000 -17.271800 0.088200 -1.915100 -5.271000 0.000000 0.000000 0.000000 19.723300 2.137300 -8.747800 -2.630300 -10.071100 29.207200 0.239800 -17.617200 -22.714600 -0.016600 0.831800 -2.286200 -1.417800 -0.189100 0.142000 1.959400 -0.229800 -2.506600 2.815900 -0.058700 -2.640000 3.722000 -2.114900 -18.116000 -4.493800 -2.936500 21.286400 -2.578500 -1.586900 9.592700 -0.000000 -0.000000 0.000000 5.906000 7.856400 -25.082800 16.605900 -26.335200 3.910900 13.910400 -7.286000 1.163500 0.000000 0.000000 0.000000 -7.125000 0.000000 0.000000 -9.825400 28.722600 -3.947700 -0.000000 -0.000000 0.000000 -6.075000 6.972200 7.218300 -12.991600 -21.274900 -2.450200 -18.876400 -4.686200 -0.382000 0.000000 0.000000 0.000000 7.125000 0.000000 -0.000000 6.029400 29.550700 2.282800
0.043868 17.914859 -29.725655 -0.512321 3.735370 2.644888 0.000000 0.000000 0.000000 -19.141539 -3.907585 -5.753062 1.815390 8.470484 24.152424 0.082280 11.340827 -17.263453 0.092300 -1.959134 -5.392834 0.000000 0.000000 0.000000 19.706908 2.068891 -8.740893 -2.625376 -10.062391 29.178929 0.249650 -17.645809 -22.660681 -0.017570 0.854687 -2.349139 -1.374160 -0.033331 0.156727 1.770139 -0.025481 -2.506202 2.591098 0.040376 -2.659477 4.184450 -2.198271 -18.059823 -4.643622 -3.149651 21.188179 -2.730602 -1.666548 9.525480 0.000000 0.000000 0.000000 6.248061 7.801610 -25.534571 16.598572 -26.325563 3.907644 14.235932 -7.833463 1.756080 0.000000 0.000000 0.000000 -7.125000 0.000000 0.000000 -9.523396 28.120880 -3.959980 0.000000 0.000000 0.000000 -5.657347 7.131239 6.646742 -12.961274 -21.230386 -2.439273 -18.765460 -4.490950 -0.289732 0.000000 0.000000 0.000000 7.125000 0.000000 0.000000 6.121948 29.647046 2.304157
0.043728 17.914677 -29.726030 -0.543069 3.788073 2.642912 0.000000 0.000000 0.000000 -19.102366 -3.921566 -5.768743 1.819680 8.480004 24.181717 0.088271 11.289390 -17.274392 0.091891 -1.955318 -5.382138 0.000000 0.000000 0.000000 19.745324 2.048353 -8.730048 -2.620680 -10.054073 29.152096 0.252974 -17.672259 -22.668531 -0.017219 0.847479 -2.329283 -1.352916 -0.011830 0.171703 1.750063 0.003376 -2.538005 2.557923 0.054855 -2.702263 4.440234 -2.078749 -18.043954 -4.878106 -2.998319 21.243742 -2.836812 -1.601990 9.540884 0.000000 0.000000 0.000000 6.235902 7.900178 -25.505047 16.627155 -26.363605 3.920346 14.331019 -8.156531 2.051022 0.000000 0.000000 0.000000 -7.125000 0.000000 0.000000 -9.425173 27.820810 -3.986728 0.000000 0.000000 0.000000 -5.593063 7.251595 6.491509 -12.876911 -21.106539 -2.408836 -18.674419 -4.369630 -0.417811 0.000000 0.000000 0.000000 7.125000 0.000000 0.000000 6.185193 29.512153 2.348140
0.043502 17.914800 -29.727320 -0.598827 3.821682 2.646304 0.000000 0.000000 0.000000 -19.035330 -3.928450 -5.797862 1.825109 8.491841 24.218042 0.093804 11.252560 -17.297810 0.091891 -1.954618 -5.380272 0.000000 0.000000 0.000000 19.811635 2.046407 -8.725246 -2.615920 -10.045657 29.124833 0.254948 -17.688826 -22.675065 -0.016798 0.837846 -2.302748 -1.222021 0.135456 0.216115 1.592603 0.198442 -2.535768 2.316873 0.147625 -2.734173 4.678522 -2.165432 -18.185788 -4.881768 -3.192596 21.328603 -2.907867 -1.673062 9.581464 0.000000 0.000000 0.000000 6.546768 7.828805 -25.871442 16.634707 -26.373677 3.923724 14.369772 -8.352039 1.967901 0.000000 0.000000 0.000000 -7.125000 0.000000 0.000000 -9.402300 27.905306 -3.957817 0.000000 0.000000 0.000000 -5.224705 7.334410 5.929540 -12.808002 -21.005178 -2.383979 -18.636253 -4.283584 -0.643114 0.000000 0.000000 0.000000 7.125000 0.000000 0.000000 6.201137 29.275669 2.389281
0.043709 17.914800 -29.728562 -0.649395 3.849414 2.653500 0.000000 0.000000 0.000000 -18.976167 -3.936685 -5.832764 1.831558 8.506069 24.261970 0.099949 11.214824 -17.328154 0.091428 -1.950212 -5.368044 0.000000 0.000000 0.000000 19.868291 2.034114 -8.729727 -2.611032 -10.036990 29.096627 0.257680 -17.700485 -22.665341 -0.016700 0.834820 -2.294378 -1.077233 0.302267 0.295571 1.411564 0.418861 -2.508403 2.042773 0.252063 -2.758427 4.734658 -2.344542 -18.400521 -4.684898 -3.516100 21.394856 -2.896619 -1.795626 9.629920 0.000000 0.000000 0.000000 6.913512 7.645735 -26.324537 16.606277 -26.335827 3.911054 14.341278 -8.561842 1.906073 0.000000 0.000000 0.000000 -7.125000 0.000000 0.000000 -9.429305 27.968333 -3.955195 0.000000 0.000000 0.000000 -4.815950 7.361131 5.342981 -12.756197 -20.928936 -2.365479 -18.595435 -4.228635 -0.906729 0.000000 0.000000 0.000000 7.125000 0.000000 0.000000 6.217053 28.999083 2.436672
0.044181 17.914730 -29.729833 -0.689879 3.869418 2.663101 0.000000 0.000000 0.000000 -18.929602 -3.944220 -5.865695 1.836830 8.517623 24.297690 0.104819 11.185916 -17.353892 0.091159 -1.947383 -5.360242 0.000000 0.000000 0.000000 19.911230 2.017047 -8.741099 -2.606762 -10.029445 29.072122 0.259895 -17.703592 -22.647655 -0.016700 0.834784 -2.294301 -0.970687 0.422041 0.389112 1.283750 0.577149 -2.491337 1.846405 0.327254 -2.797856 4.674130 -2.493084 -18.584974 -4.470354 -3.766004 21.441430 -2.849529 -1.891264 9.673366 0.000000 0.000000 0.000000 7.163487 7.499503 -26.620481 16.563644 -26.278932 3.892157 14.254660 -8.642145 1.721689 0.000000 0.000000 0.000000 -7.125000 0.000000 0.000000 -9.511183 28.156068 -3.947583 0.000000 0.000000 0.000000 -4.537062 7.391948 4.970717 -12.720556 -20.876406 -2.352777 -18.534065 -4.213976 -1.127964 0.000000 0.000000 0.000000 7.125000 0.000000 0.000000 6.251743 28.767105 2.485089
0.044713 17.914596 -29.731039 -0.714378 3.886386 2.673121 0.000000 0.000000 0.000000 -18.901474 -3.955508 -5.892773 1.840678 8.525974 24.323530 0.108252 11.166366 -17.372273 0.091191 -1.947713 -5.361161 0.000000 0.000000 0.000000 19.935078 1.995758 -8.756769 -2.603531 -10.023778 29.053901 0.261513 -17.701361 -22.627901 -0.016700 0.835013 -2.295039 -0.962283 0.413102 0.469141 1.304966 0.565595 -2.481816 1.863394 0.321743 -2.832801 4.488766 -2.482680 -18.725745 -4.381141 -3.724114 21.471828 -2.786780 -1.876390 9.718600 0.000000 0.000000 0.000000 7.079641 7.461840 -26.472584 16.518845 -26.219059 3.872388 14.116075 -8.557964 1.459758 0.000000 0.000000 0.000000 -7.125000 0.000000 0.000000 -9.640408 28.422307 -3.940988 0.000000 0.000000 0.000000 -4.599429 7.402817 5.085958 -12.689092 -20.830002 -2.341583 -18.441363 -4.247317 -1.273233 0.000000 0.000000 0.000000 7.125000 0.000000 0.000000 6.315273 28.615011 2.533419
0.045077 17.914462 -29.732322 -0.721652 3.901592 2.682965 0.000000 0.000000 0.000000 -18.892342 -3.970194 -5.913052 1.842822 8.530760 24.338157 0.109861 11.154930 -17.378838 0.090846 -1.944072 -5.351139 0.000000 0.000000 0.000000 19.939730 1.974754 -8.774061 -2.601616 -10.020409 29.042796 0.261685 -17.694794 -22.616017 -0.016662 0.834110 -2.292559 -1.048420 0.292462 0.517637 1.454645 0.406267 -2.480866 2.070459 0.246224 -2.854783 4.287663 -2.300045 -18.801642 -4.483205 -3.386226 21.464081 -2.746983 -1.748774 9.749329 0.000000 0.000000 0.000000 6.705012 7.538512 -25.940189 16.478118 -26.164634 3.854380 13.923922 -8.320477 1.096517 0.000000 0.000000 0.000000 -7.125000 0.000000 0.000000 -9.821393 28.790566 -3.929711 0.000000 0.000000 0.000000 -4.956014 7.404874 5.630203 -12.666216 -20.796185 -2.333421 -18.321770 -4.328626 -1.316884 0.000000 0.000000 0.000000 7.125000 0.000000 0.000000 6.405413 28.569502 2.576987
0.045200 17.914328 -29.733869 -0.727413 3.917205 2.693124 0.000000 0.000000 0.000000 -18.883186 -3.982901 -5.932161 1.844007 8.533387 24.346160 0.111252 11.140647 -17.378178 0.090020 -1.935069 -5.326183 0.000000 0.000000 0.000000 19.944668 1.960634 -8.792351 -2.600565 -10.018503 29.036564 0.261790 -17.693207 -22.612426 -0.016600 0.832128 -2.287055 -1.164131 0.138213 0.543464 1.646379 0.201892 -2.399036 2.339115 0.147901 -2.777566 4.013111 -2.087961 -19.114810 -4.577808 -2.994755 21.498585 -2.691450 -1.602260 9.843210 0.000000 0.000000 0.000000 6.231673 7.473663 -25.268894 16.428458 -26.098109 3.832515 13.686401 -8.025685 0.708473 0.000000 0.000000 0.000000 -7.125000 0.000000 0.000000 -10.041838 29.182638 -3.925403 0.000000 0.000000 0.000000 -5.406520 7.212331 6.284670 -12.635060 -20.750225 -2.322421 -18.213528 -4.418790 -1.363565 0.000000 0.000000 0.000000 7.125000 0.000000 0.000000 6.486489 28.520893 2.617494
